<?xml version="1.0" encoding="iso-8859-1"?>
<!-- Uploaded to: SVG Repo, www.svgrepo.com, Generator: SVG Repo Mixer Tools -->
<svg version="1.1" id="Layer_1" xmlns="http://www.w3.org/2000/svg" xmlns:xlink="http://www.w3.org/1999/xlink" 
	 viewBox="0 0 512.023 512.023" xml:space="preserve">
<g transform="matrix(0.8266 -0.5628 0.5628 0.8266 -27.974 157.48)">
	<rect x="60.07" y="108.859" style="fill:#A9ACCC;" width="379.63" height="61.112"/>
	<rect x="60.07" y="108.859" style="opacity:0.1;enable-background:new    ;" width="379.63" height="61.112"/>
</g>
<g>
	<path style="fill:#464754;" d="M417.616,38.639c1.632,0,3.186-0.504,4.482-1.386l-10.839-15.922l-35.814-6.802l-15.921,10.838
		c1.149,1.69,2.943,2.941,5.109,3.351l51.487,9.777C416.622,38.594,417.123,38.639,417.616,38.639z"/>
	<path style="fill:#464754;" d="M401.996,63.55l-77.06-14.634l-15.922,10.839c1.149,1.69,2.943,2.941,5.109,3.351l77.056,14.633
		l15.924-10.84C405.955,65.211,404.161,63.961,401.996,63.55z"/>
	<path style="fill:#464754;" d="M351.488,97.936l-77.059-14.634l-15.922,10.839c1.149,1.69,2.943,2.941,5.109,3.351l77.056,14.634
		l15.924-10.84C355.446,99.597,353.653,98.347,351.488,97.936z"/>
	<path style="fill:#464754;" d="M300.98,132.321l-77.059-14.634l-15.921,10.839c1.149,1.69,2.943,2.941,5.109,3.351l77.056,14.633
		l15.924-10.84C304.938,133.982,303.146,132.733,300.98,132.321z"/>
	<path style="fill:#464754;" d="M250.472,166.707l-77.059-14.634l-15.922,10.839c1.149,1.689,2.943,2.941,5.109,3.351l77.056,14.633
		l15.924-10.84C254.43,168.368,252.637,167.118,250.472,166.707z"/>
</g>
<rect x="82.946" y="213.659" style="fill:#A9ACCC;" width="379.63" height="61.112"/>
<g>
	<path style="fill:#464754;" d="M462.573,239.439l-25.777-25.778h-19.26c-0.001,2.043,0.778,4.087,2.337,5.646l37.058,37.058
		c1.558,1.558,3.6,2.337,5.642,2.337h0.001L462.573,239.439z"/>
	<path style="fill:#464754;" d="M358.77,219.308l55.46,55.46h19.263c0-2.042-0.779-4.084-2.337-5.643l-55.463-55.463h-19.26
		C356.432,215.704,357.211,217.748,358.77,219.308z"/>
	<path style="fill:#464754;" d="M297.667,219.308l55.46,55.46h19.263c0-2.042-0.779-4.084-2.337-5.643l-55.463-55.463h-19.26
		C295.33,215.704,296.109,217.748,297.667,219.308z"/>
	<path style="fill:#464754;" d="M236.566,219.308l55.46,55.46h19.263c0-2.042-0.779-4.084-2.337-5.643l-55.463-55.463h-19.26
		C234.228,215.704,235.007,217.748,236.566,219.308z"/>
	<path style="fill:#464754;" d="M175.464,219.308l55.46,55.46h19.263c0-2.042-0.779-4.084-2.337-5.643l-55.463-55.463h-19.26
		C173.127,215.704,173.905,217.748,175.464,219.308z"/>
</g>
<path style="opacity:0.1;enable-background:new    ;" d="M132.602,179.856l-49.657,33.805v60.096l0,0
	c12.527,0,24.167-3.858,33.805-10.44c0.584-0.399,1.159-0.812,1.729-1.23c0.281-0.206,0.559-0.416,0.835-0.627
	c0.47-0.359,0.935-0.725,1.395-1.097c0.318-0.257,0.633-0.519,0.946-0.783c0.41-0.346,0.816-0.697,1.216-1.054
	c0.251-0.223,0.501-0.446,0.748-0.673c0.525-0.483,1.042-0.975,1.548-1.476c0.228-0.226,0.451-0.455,0.676-0.685
	c0.385-0.393,0.764-0.79,1.138-1.194c0.199-0.214,0.4-0.426,0.596-0.643c0.483-0.535,0.953-1.082,1.416-1.635
	c0.202-0.242,0.402-0.484,0.601-0.728c0.461-0.567,0.914-1.139,1.354-1.723c0.153-0.203,0.3-0.411,0.451-0.615
	c0.361-0.49,0.713-0.986,1.059-1.487c0.157-0.229,0.317-0.456,0.471-0.687c0.422-0.633,0.834-1.274,1.233-1.923
	c0.138-0.223,0.271-0.45,0.406-0.676c0.343-0.573,0.677-1.152,1-1.737c0.087-0.159,0.179-0.314,0.265-0.473
	c0.379-0.7,0.74-1.412,1.092-2.128c0.111-0.224,0.22-0.45,0.328-0.677c0.346-0.727,0.68-1.459,0.997-2.201
	c0.068-0.161,0.132-0.324,0.2-0.486c0.276-0.662,0.538-1.329,0.79-2.002c0.071-0.19,0.146-0.38,0.215-0.572
	c0.281-0.775,0.546-1.558,0.796-2.346c0.064-0.2,0.123-0.401,0.185-0.602c0.234-0.768,0.456-1.541,0.661-2.321
	c0.019-0.073,0.04-0.146,0.06-0.219c0.215-0.837,0.406-1.684,0.586-2.534c0.041-0.199,0.084-0.397,0.123-0.596
	c0.169-0.847,0.324-1.698,0.457-2.558c0.022-0.14,0.039-0.283,0.061-0.423c0.117-0.793,0.219-1.59,0.305-2.393
	c0.017-0.155,0.036-0.31,0.051-0.465c0.087-0.877,0.153-1.76,0.202-2.648c0.011-0.191,0.018-0.384,0.028-0.577
	c0.042-0.916,0.07-1.835,0.07-2.762C143.042,201.135,139.185,189.494,132.602,179.856z"/>
<circle style="fill:#A9ACCC;" cx="82.946" cy="213.659" r="33.499"/>
<g>
	<circle style="fill:#464754;" cx="82.946" cy="213.659" r="13.636"/>
	<path style="fill:#464754;" d="M82.946,256.681v226.453c0,15.955,12.934,28.889,28.889,28.889h321.848
		c15.955,0,28.889-12.934,28.889-28.889V256.681H82.946z"/>
</g>
<g>
	<path style="fill:#A9ACCC;" d="M425.514,480.637H120.005c-4.407,0-7.979-3.573-7.979-7.979c0-4.407,3.573-7.979,7.979-7.979
		h305.509c4.407,0,7.979,3.573,7.979,7.979C433.493,477.065,429.921,480.637,425.514,480.637z"/>
	<path style="fill:#A9ACCC;" d="M425.514,394.46h-64.981V329.56h64.981c4.407,0,7.979-3.572,7.979-7.979
		c0-4.407-3.573-7.979-7.979-7.979H120.005c-4.407,0-7.979,3.573-7.979,7.979c0,4.408,3.573,7.979,7.979,7.979h64.981v64.899
		h-64.981c-4.407,0-7.979,3.573-7.979,7.979c0,4.408,3.573,7.979,7.979,7.979h305.509c4.407,0,7.979-3.572,7.979-7.979
		C433.493,398.032,429.921,394.46,425.514,394.46z M200.944,329.56h143.63v64.899h-143.63V329.56z"/>
</g>
</svg>