<?xml version="1.0" encoding="iso-8859-1"?>
<!-- Uploaded to: SVG Repo, www.svgrepo.com, Generator: SVG Repo Mixer Tools -->
<svg height="800px" width="800px" version="1.1" id="Layer_1" xmlns="http://www.w3.org/2000/svg" xmlns:xlink="http://www.w3.org/1999/xlink" 
	 viewBox="0 0 512 512" xml:space="preserve">
<path style="fill:#5B5D6E;" d="M208.56,409.582h130.16c22.604,0,43.857-8.803,59.842-24.786
	c24.073-24.074,44.259-38.995,81.204-38.995H512v48.51h-32.234c-18.829,0-27.677,5.559-46.904,24.786
	c-25.147,25.146-58.581,38.995-94.142,38.995H208.56V409.582z"/>
<path style="fill:#707287;" d="M479.766,345.8c-36.945,0-57.132,14.922-81.204,38.995c-15.984,15.983-37.237,24.786-59.842,24.786
	H208.56v21.56h130.16c22.604,0,43.857-8.803,59.842-24.786c24.073-24.074,44.259-38.995,81.204-38.995H512V345.8H479.766z"/>
<path style="fill:#9497B3;" d="M202.092,53.908C90.479,53.908,0,144.388,0,256s90.479,202.092,202.092,202.092
	S404.183,367.612,404.183,256S313.704,53.908,202.092,53.908z M43.592,210.257c6.176-26.731,32.853-43.395,59.585-37.219
	c26.732,6.176,43.395,32.853,37.219,59.585c-6.176,26.731-32.853,43.395-59.585,37.219C54.079,263.667,37.415,236.99,43.592,210.257
	z M171.813,377.756c-16.622,21.827-47.792,26.048-69.619,9.425c-21.827-16.622-26.048-47.791-9.426-69.619
	c16.622-21.827,47.792-26.048,69.619-9.425S188.436,355.929,171.813,377.756z M152.414,140.789
	c0-27.436,22.241-49.677,49.677-49.677s49.677,22.241,49.677,49.677s-22.241,49.677-49.677,49.677S152.414,168.225,152.414,140.789z
	 M301.988,387.181c-21.827,16.622-52.997,12.402-69.619-9.425c-16.622-21.828-12.402-52.997,9.425-69.619
	s52.997-12.402,69.619,9.425C328.036,339.39,323.817,370.56,301.988,387.181z M323.373,269.843
	c-26.732,6.176-53.409-10.488-59.585-37.219c-6.176-26.732,10.488-53.409,37.219-59.585c26.732-6.176,53.409,10.488,59.585,37.219
	C366.767,236.99,350.104,263.667,323.373,269.843z"/>
<path style="fill:#A9ACCC;" d="M21.56,256c0-107.996,84.712-196.2,191.312-201.805c-3.57-0.188-7.163-0.287-10.78-0.287
	C90.479,53.908,0,144.388,0,256s90.479,202.092,202.092,202.092c3.617,0,7.21-0.099,10.78-0.287
	C106.272,452.2,21.56,363.996,21.56,256z"/>
<g>
	<circle style="fill:#5B5D6E;" cx="202.092" cy="256.002" r="29.037"/>
	<path style="fill:#5B5D6E;" d="M263.787,232.624c5.724,24.777,29.062,40.889,53.73,38.199c0.617-4.853,0.935-9.8,0.935-14.821
		c0-30.07-11.407-57.474-30.129-78.126C269.28,188.293,258.66,210.434,263.787,232.624z"/>
	<path style="fill:#5B5D6E;" d="M304.899,310.534c-17.397-15.499-43.873-17.041-63.104-2.396
		c-19.231,14.645-24.785,40.579-14.468,61.47C260.978,362.166,289.152,340.159,304.899,310.534z"/>
	<path style="fill:#5B5D6E;" d="M162.388,308.137c-19.23-14.645-45.708-13.103-63.104,2.396
		c15.747,29.625,43.921,51.633,77.572,59.074C187.173,348.717,181.619,322.782,162.388,308.137z"/>
	<path style="fill:#5B5D6E;" d="M115.86,177.875C97.138,198.526,85.731,225.93,85.731,256c0,5.021,0.318,9.968,0.935,14.821
		c24.668,2.692,48.005-13.421,53.73-38.199C145.523,210.434,134.903,188.293,115.86,177.875z"/>
	<path style="fill:#5B5D6E;" d="M202.092,139.639c-17.41,0-33.923,3.83-48.753,10.684c4.448,22.873,24.579,40.143,48.753,40.143
		s44.306-17.271,48.753-40.143C236.015,143.469,219.501,139.639,202.092,139.639z"/>
</g>
</svg>